# xmcd
#
# Track frame offsets:
#	150
#	10365
#	26552
#	37465
#	50420
#	64147
#	81392
# Disc length: 1130 seconds
# Revision: 1
# Processed by: cddbd v1.5.2PL0 Copyright (c) Steve Scherf et al.
#
# Submitted via: libkcddb 0.31
#
DISCID=5f046807
DTITLE=Marisa Monte - Barulhinho Bom - CD 2
DYEAR=1900
DGENRE=Pop
TTITLE0=Arrepio
TTITLE1=Magamalabares
TTITLE2=Chuva no Brejo
TTITLE3=Cérebro Eletrônico
TTITLE4=Tempos Modernos
TTITLE5=Maraçá
TTITLE6=Blanco
EXTD=
EXTT0=
EXTT1=
EXTT2=
EXTT3=
EXTT4=
EXTT5=
EXTT6=
PLAYORDER=
